<svg xmlns="http://www.w3.org/2000/svg" viewBox="0 0 760 230" width="760" height="230" font-family="Segoe UI, Helvetica, Arial, sans-serif" font-size="14" fill="#172033"><defs><marker id="a" viewBox="0 0 10 10" refX="9" refY="5" markerWidth="8" markerHeight="8" orient="auto"><path d="M0 0L10 5L0 10z" fill="#172033"/></marker><marker id="o" viewBox="0 0 12 12" refX="11" refY="6" markerWidth="9" markerHeight="9" orient="auto"><path d="M1 1L11 6L1 11" fill="none" stroke="#172033" stroke-width="1.5"/></marker><marker id="t" viewBox="0 0 12 12" refX="11" refY="6" markerWidth="10" markerHeight="10" orient="auto"><path d="M1 1L11 6L1 11z" fill="#fff" stroke="#172033" stroke-width="1.4"/></marker></defs><rect width="760" height="230" fill="#fff"/><rect x="15" y="60" width="105" height="60" rx="6" fill="#E8F0FB" stroke="#1B4F9C" stroke-width="1.6"/><text x="67.5" y="94.5" text-anchor="middle" font-size="13" font-weight="600" fill="#172033"><tspan x="67.5" dy="0">Planeamento</tspan></text><line x1="120" y1="90" x2="140" y2="90" stroke="#172033" stroke-width="1.6" marker-end="url(#a)"/><rect x="140" y="60" width="105" height="60" rx="6" fill="#FFF4D6" stroke="#B9770E" stroke-width="1.6"/><text x="192.5" y="94.5" text-anchor="middle" font-size="13" font-weight="600" fill="#172033"><tspan x="192.5" dy="0">Análise</tspan></text><line x1="245" y1="90" x2="265" y2="90" stroke="#172033" stroke-width="1.6" marker-end="url(#a)"/><rect x="265" y="60" width="105" height="60" rx="6" fill="#E8F0FB" stroke="#1B4F9C" stroke-width="1.6"/><text x="317.5" y="94.5" text-anchor="middle" font-size="13" font-weight="600" fill="#172033"><tspan x="317.5" dy="0">Conceção</tspan></text><line x1="370" y1="90" x2="390" y2="90" stroke="#172033" stroke-width="1.6" marker-end="url(#a)"/><rect x="390" y="60" width="105" height="60" rx="6" fill="#FFF4D6" stroke="#B9770E" stroke-width="1.6"/><text x="442.5" y="94.5" text-anchor="middle" font-size="13" font-weight="600" fill="#172033"><tspan x="442.5" dy="0">Implementação</tspan></text><line x1="495" y1="90" x2="515" y2="90" stroke="#172033" stroke-width="1.6" marker-end="url(#a)"/><rect x="515" y="60" width="105" height="60" rx="6" fill="#E8F0FB" stroke="#1B4F9C" stroke-width="1.6"/><text x="567.5" y="94.5" text-anchor="middle" font-size="13" font-weight="600" fill="#172033"><tspan x="567.5" dy="0">Testes</tspan></text><line x1="620" y1="90" x2="640" y2="90" stroke="#172033" stroke-width="1.6" marker-end="url(#a)"/><rect x="640" y="60" width="105" height="60" rx="6" fill="#FFF4D6" stroke="#B9770E" stroke-width="1.6"/><text x="692.5" y="86.4" text-anchor="middle" font-size="13" font-weight="600" fill="#172033"><tspan x="692.5" dy="0">Instalação e</tspan><tspan x="692.5" dy="16.25">manutenção</tspan></text><path d="M692 120 V185 H192 V120" fill="none" stroke="#172033" stroke-width="1.6" marker-end="url(#a)"/><text x="442" y="209.2" text-anchor="middle" font-size="12" font-weight="400" fill="#172033"><tspan x="442" dy="0">novos requisitos e correções (manutenção)</tspan></text></svg>