<svg xmlns="http://www.w3.org/2000/svg" viewBox="0 0 870 160" width="870" height="160" font-family="Segoe UI, Helvetica, Arial, sans-serif" font-size="14" fill="#172033"><defs><marker id="a" viewBox="0 0 10 10" refX="9" refY="5" markerWidth="8" markerHeight="8" orient="auto"><path d="M0 0L10 5L0 10z" fill="#172033"/></marker><marker id="o" viewBox="0 0 12 12" refX="11" refY="6" markerWidth="9" markerHeight="9" orient="auto"><path d="M1 1L11 6L1 11" fill="none" stroke="#172033" stroke-width="1.5"/></marker><marker id="t" viewBox="0 0 12 12" refX="11" refY="6" markerWidth="10" markerHeight="10" orient="auto"><path d="M1 1L11 6L1 11z" fill="#fff" stroke="#172033" stroke-width="1.4"/></marker></defs><rect width="870" height="160" fill="#fff"/><rect x="30" y="30" width="170" height="102" fill="#fff" stroke="#1B4F9C" stroke-width="1.8"/><rect x="30" y="30" width="170" height="30" fill="#1B4F9C"/><text x="115.0" y="49.9" text-anchor="middle" font-size="14" font-weight="700" fill="#fff"><tspan x="115.0" dy="0">Turma</tspan></text><text x="42" y="78.5" text-anchor="start" font-size="13" font-weight="600" fill="#172033" text-decoration="underline"><tspan x="42" dy="0">códigoTurma</tspan></text><text x="42" y="100.5" text-anchor="start" font-size="13" font-weight="400" fill="#172033"><tspan x="42" dy="0">ano</tspan></text><text x="42" y="122.5" text-anchor="start" font-size="13" font-weight="400" fill="#172033"><tspan x="42" dy="0">curso</tspan></text><rect x="350" y="30" width="170" height="102" fill="#fff" stroke="#1B4F9C" stroke-width="1.8"/><rect x="350" y="30" width="170" height="30" fill="#1B4F9C"/><text x="435.0" y="49.9" text-anchor="middle" font-size="14" font-weight="700" fill="#fff"><tspan x="435.0" dy="0">Aluno</tspan></text><text x="362" y="78.5" text-anchor="start" font-size="13" font-weight="600" fill="#172033" text-decoration="underline"><tspan x="362" dy="0">nºAluno</tspan></text><text x="362" y="100.5" text-anchor="start" font-size="13" font-weight="400" fill="#172033"><tspan x="362" dy="0">nome</tspan></text><text x="362" y="122.5" text-anchor="start" font-size="13" font-weight="400" fill="#172033"><tspan x="362" dy="0">dataNascimento</tspan></text><rect x="670" y="30" width="170" height="102" fill="#fff" stroke="#1B4F9C" stroke-width="1.8"/><rect x="670" y="30" width="170" height="30" fill="#1B4F9C"/><text x="755.0" y="49.9" text-anchor="middle" font-size="14" font-weight="700" fill="#fff"><tspan x="755.0" dy="0">Disciplina</tspan></text><text x="682" y="78.5" text-anchor="start" font-size="13" font-weight="600" fill="#172033" text-decoration="underline"><tspan x="682" dy="0">códigoDisciplina</tspan></text><text x="682" y="100.5" text-anchor="start" font-size="13" font-weight="400" fill="#172033"><tspan x="682" dy="0">designação</tspan></text><text x="682" y="122.5" text-anchor="start" font-size="13" font-weight="400" fill="#172033"><tspan x="682" dy="0">cargaHorária</tspan></text><line x1="200" y1="90" x2="221.0" y2="90" stroke="#172033" stroke-width="1.6"/><line x1="329.0" y1="90" x2="350" y2="90" stroke="#172033" stroke-width="1.6"/><polygon points="275.0,63.0 329.0,90 275.0,117.0 221.0,90" fill="#FFF4D6" stroke="#B9770E" stroke-width="1.6"/><text x="275.0" y="94.2" text-anchor="middle" font-size="12" font-weight="400" fill="#172033"><tspan x="275.0" dy="0">tem</tspan></text><text x="212" y="83.5" text-anchor="middle" font-size="13" font-weight="700" fill="#172033" stroke="#fff" stroke-width="4" stroke-linejoin="round" paint-order="stroke"><tspan x="212" dy="0">1</tspan></text><text x="338" y="83.5" text-anchor="middle" font-size="13" font-weight="700" fill="#172033" stroke="#fff" stroke-width="4" stroke-linejoin="round" paint-order="stroke"><tspan x="338" dy="0">N</tspan></text><line x1="520" y1="90" x2="541.0" y2="90" stroke="#172033" stroke-width="1.6"/><line x1="649.0" y1="90" x2="670" y2="90" stroke="#172033" stroke-width="1.6"/><polygon points="595.0,63.0 649.0,90 595.0,117.0 541.0,90" fill="#FFF4D6" stroke="#B9770E" stroke-width="1.6"/><text x="595.0" y="94.2" text-anchor="middle" font-size="12" font-weight="400" fill="#172033"><tspan x="595.0" dy="0">frequenta</tspan></text><text x="532" y="83.5" text-anchor="middle" font-size="13" font-weight="700" fill="#172033" stroke="#fff" stroke-width="4" stroke-linejoin="round" paint-order="stroke"><tspan x="532" dy="0">N</tspan></text><text x="658" y="83.5" text-anchor="middle" font-size="13" font-weight="700" fill="#172033" stroke="#fff" stroke-width="4" stroke-linejoin="round" paint-order="stroke"><tspan x="658" dy="0">M</tspan></text></svg>